<svg width="149" height="149" viewBox="0 0 149 149" fill="none" xmlns="http://www.w3.org/2000/svg">
<g filter="url(#filter0_d_13_176)">
<rect x="34.8369" y="22.1797" width="79.0887" height="79.0887" rx="39.5443" fill="#8474E8"/>
<path d="M72.6309 63.9736L69.9434 61.2861C69.7142 61.057 69.4225 60.9424 69.0684 60.9424C68.7142 60.9424 68.4225 61.057 68.1934 61.2861C67.9642 61.5153 67.8496 61.807 67.8496 62.1611C67.8496 62.5153 67.9642 62.807 68.1934 63.0361L71.7559 66.5986C72.0059 66.8486 72.2975 66.9736 72.6309 66.9736C72.9642 66.9736 73.2559 66.8486 73.5059 66.5986L80.5684 59.5361C80.7975 59.307 80.9121 59.0153 80.9121 58.6611C80.9121 58.307 80.7975 58.0153 80.5684 57.7861C80.3392 57.557 80.0475 57.4424 79.6934 57.4424C79.3392 57.4424 79.0475 57.557 78.8184 57.7861L72.6309 63.9736ZM74.3809 74.2236C72.6517 74.2236 71.0267 73.8953 69.5059 73.2386C67.985 72.582 66.6621 71.6916 65.5371 70.5674C64.4121 69.4424 63.5217 68.1195 62.8659 66.5986C62.21 65.0778 61.8817 63.4528 61.8809 61.7236C61.8809 59.9945 62.2092 58.3695 62.8659 56.8486C63.5225 55.3278 64.4129 54.0049 65.5371 52.8799C66.6621 51.7549 67.985 50.8645 69.5059 50.2086C71.0267 49.5528 72.6517 49.2245 74.3809 49.2236C76.11 49.2236 77.735 49.552 79.2559 50.2086C80.7767 50.8653 82.0996 51.7557 83.2246 52.8799C84.3496 54.0049 85.2404 55.3278 85.8971 56.8486C86.5538 58.3695 86.8817 59.9945 86.8809 61.7236C86.8809 63.4528 86.5525 65.0778 85.8959 66.5986C85.2392 68.1195 84.3488 69.4424 83.2246 70.5674C82.0996 71.6924 80.7767 72.5832 79.2559 73.2399C77.735 73.8965 76.11 74.2245 74.3809 74.2236Z" fill="white"/>
</g>
<defs>
<filter id="filter0_d_13_176" x="0.56813" y="0.689095" width="147.626" height="147.626" filterUnits="userSpaceOnUse" color-interpolation-filters="sRGB">
<feFlood flood-opacity="0" result="BackgroundImageFix"/>
<feColorMatrix in="SourceAlpha" type="matrix" values="0 0 0 0 0 0 0 0 0 0 0 0 0 0 0 0 0 0 127 0" result="hardAlpha"/>
<feOffset dy="12.7782"/>
<feGaussianBlur stdDeviation="17.1344"/>
<feColorMatrix type="matrix" values="0 0 0 0 0.811042 0 0 0 0 0.876879 0 0 0 0 0.954167 0 0 0 0.26 0"/>
<feBlend mode="normal" in2="BackgroundImageFix" result="effect1_dropShadow_13_176"/>
<feBlend mode="normal" in="SourceGraphic" in2="effect1_dropShadow_13_176" result="shape"/>
</filter>
</defs>
</svg>
