<svg width="33" height="33" viewBox="0 0 33 33" fill="none" xmlns="http://www.w3.org/2000/svg">
<path d="M16.6279 0.186523C7.69043 0.186523 0.37793 7.49902 0.37793 16.4365C0.37793 25.374 7.69043 32.6865 16.6279 32.6865C25.5654 32.6865 32.8779 25.374 32.8779 16.4365C32.8779 7.49902 25.5654 0.186523 16.6279 0.186523ZM11.4767 8.39277C13.0692 8.39277 14.3529 9.67652 14.3529 11.2853C14.3529 12.8778 13.0692 14.1615 11.4767 14.1615C9.86793 14.1615 8.58418 12.8778 8.58418 11.2853C8.58418 9.67652 9.86793 8.39277 11.4767 8.39277ZM21.8604 24.5615C20.2679 24.5615 18.9842 23.2615 18.9842 21.669C18.9842 20.0765 20.2679 18.7928 21.8604 18.7928C23.4529 18.7928 24.7529 20.0765 24.7529 21.669C24.7529 23.2615 23.4529 24.5615 21.8604 24.5615ZM10.9404 24.6103L8.50293 22.1728L22.3642 8.31152L24.8017 10.749L10.9404 24.6103Z" fill="black"/>
</svg>
