<svg width="30" height="28" viewBox="0 0 30 28" fill="none" xmlns="http://www.w3.org/2000/svg">
<path d="M0.140625 3.36979C0.140625 2.00129 1.25129 0.890625 2.61979 0.890625H21.7448C23.1133 0.890625 24.224 2.00129 24.224 3.36979V10.8073H19.974C19.2225 10.8073 18.5018 11.1058 17.9705 11.6372C17.4391 12.1685 17.1406 12.8892 17.1406 13.6406V17.8906H2.61979C1.96228 17.8906 1.33169 17.6294 0.866756 17.1645C0.401822 16.6996 0.140625 16.069 0.140625 15.4115V3.36979ZM4.39062 4.07812C4.39062 4.35992 4.27868 4.63017 4.07943 4.82943C3.88017 5.02868 3.60992 5.14062 3.32812 5.14062H1.91146V7.26562H3.32812C4.1735 7.26562 4.98426 6.9298 5.58203 6.33203C6.1798 5.73426 6.51562 4.9235 6.51562 4.07812V2.66146H4.39062V4.07812ZM12.1823 12.9323C13.0277 12.9323 13.8384 12.5965 14.4362 11.9987C15.034 11.4009 15.3698 10.5902 15.3698 9.74479C15.3698 8.89941 15.034 8.08866 14.4362 7.49089C13.8384 6.89312 13.0277 6.55729 12.1823 6.55729C11.3369 6.55729 10.5262 6.89312 9.92839 7.49089C9.33062 8.08866 8.99479 8.89941 8.99479 9.74479C8.99479 10.5902 9.33062 11.4009 9.92839 11.9987C10.5262 12.5965 11.3369 12.9323 12.1823 12.9323ZM3.32812 13.6406C3.60992 13.6406 3.88017 13.7526 4.07943 13.9518C4.27868 14.1511 4.39062 14.4213 4.39062 14.7031V16.1198H6.51562V14.7031C6.51562 13.8577 6.1798 13.047 5.58203 12.4492C4.98426 11.8514 4.1735 11.5156 3.32812 11.5156H1.91146V13.6406H3.32812ZM21.0365 5.14062C20.7547 5.14062 20.4844 5.02868 20.2852 4.82943C20.0859 4.63017 19.974 4.35992 19.974 4.07812V2.66146H17.849V4.07812C17.849 4.9235 18.1848 5.73426 18.7826 6.33203C19.3803 6.9298 20.1911 7.26562 21.0365 7.26562H22.4531V5.14062H21.0365ZM3.54204 20.0156H17.1406V22.1406H7.22396C6.47771 22.1409 5.74455 21.9446 5.09822 21.5716C4.45189 21.1985 3.91517 20.6619 3.54204 20.0156ZM28.474 7.97396V10.8073H26.349V4.29204C26.9953 4.66506 27.532 5.20175 27.9051 5.84811C28.2781 6.49446 28.4743 7.22768 28.474 7.97396ZM20.6823 12.224C20.1187 12.224 19.5782 12.4478 19.1797 12.8464C18.7812 13.2449 18.5573 13.7854 18.5573 14.349V25.6823C18.5573 26.2459 18.7812 26.7864 19.1797 27.1849C19.5782 27.5834 20.1187 27.8073 20.6823 27.8073H27.7656C28.3292 27.8073 28.8697 27.5834 29.2682 27.1849C29.6667 26.7864 29.8906 26.2459 29.8906 25.6823V14.349C29.8906 13.7854 29.6667 13.2449 29.2682 12.8464C28.8697 12.4478 28.3292 12.224 27.7656 12.224H20.6823ZM21.3906 18.599H22.8073C22.9952 18.599 23.1753 18.6736 23.3082 18.8064C23.441 18.9393 23.5156 19.1194 23.5156 19.3073C23.5156 19.4952 23.441 19.6753 23.3082 19.8082C23.1753 19.941 22.9952 20.0156 22.8073 20.0156H21.3906C21.2028 20.0156 21.0226 19.941 20.8898 19.8082C20.7569 19.6753 20.6823 19.4952 20.6823 19.3073C20.6823 19.1194 20.7569 18.9393 20.8898 18.8064C21.0226 18.6736 21.2028 18.599 21.3906 18.599ZM25.6406 18.599H27.0573C27.2452 18.599 27.4253 18.6736 27.5582 18.8064C27.691 18.9393 27.7656 19.1194 27.7656 19.3073C27.7656 19.4952 27.691 19.6753 27.5582 19.8082C27.4253 19.941 27.2452 20.0156 27.0573 20.0156H25.6406C25.4528 20.0156 25.2726 19.941 25.1398 19.8082C25.0069 19.6753 24.9323 19.4952 24.9323 19.3073C24.9323 19.1194 25.0069 18.9393 25.1398 18.8064C25.2726 18.6736 25.4528 18.599 25.6406 18.599ZM21.3906 21.4323H22.8073C22.9952 21.4323 23.1753 21.5069 23.3082 21.6398C23.441 21.7726 23.5156 21.9528 23.5156 22.1406C23.5156 22.3285 23.441 22.5087 23.3082 22.6415C23.1753 22.7743 22.9952 22.849 22.8073 22.849H21.3906C21.2028 22.849 21.0226 22.7743 20.8898 22.6415C20.7569 22.5087 20.6823 22.3285 20.6823 22.1406C20.6823 21.9528 20.7569 21.7726 20.8898 21.6398C21.0226 21.5069 21.2028 21.4323 21.3906 21.4323ZM25.6406 21.4323H27.0573C27.2452 21.4323 27.4253 21.5069 27.5582 21.6398C27.691 21.7726 27.7656 21.9528 27.7656 22.1406C27.7656 22.3285 27.691 22.5087 27.5582 22.6415C27.4253 22.7743 27.2452 22.849 27.0573 22.849H25.6406C25.4528 22.849 25.2726 22.7743 25.1398 22.6415C25.0069 22.5087 24.9323 22.3285 24.9323 22.1406C24.9323 21.9528 25.0069 21.7726 25.1398 21.6398C25.2726 21.5069 25.4528 21.4323 25.6406 21.4323ZM21.3906 24.2656H22.8073C22.9952 24.2656 23.1753 24.3403 23.3082 24.4731C23.441 24.6059 23.5156 24.7861 23.5156 24.974C23.5156 25.1618 23.441 25.342 23.3082 25.4748C23.1753 25.6077 22.9952 25.6823 22.8073 25.6823H21.3906C21.2028 25.6823 21.0226 25.6077 20.8898 25.4748C20.7569 25.342 20.6823 25.1618 20.6823 24.974C20.6823 24.7861 20.7569 24.6059 20.8898 24.4731C21.0226 24.3403 21.2028 24.2656 21.3906 24.2656ZM25.6406 24.2656H27.0573C27.2452 24.2656 27.4253 24.3403 27.5582 24.4731C27.691 24.6059 27.7656 24.7861 27.7656 24.974C27.7656 25.1618 27.691 25.342 27.5582 25.4748C27.4253 25.6077 27.2452 25.6823 27.0573 25.6823H25.6406C25.4528 25.6823 25.2726 25.6077 25.1398 25.4748C25.0069 25.342 24.9323 25.1618 24.9323 24.974C24.9323 24.7861 25.0069 24.6059 25.1398 24.4731C25.2726 24.3403 25.4528 24.2656 25.6406 24.2656ZM20.6823 15.0573C20.6823 14.8694 20.7569 14.6893 20.8898 14.5564C21.0226 14.4236 21.2028 14.349 21.3906 14.349H27.0573C27.2452 14.349 27.4253 14.4236 27.5582 14.5564C27.691 14.6893 27.7656 14.8694 27.7656 15.0573V16.474C27.7656 16.6618 27.691 16.842 27.5582 16.9748C27.4253 17.1077 27.2452 17.1823 27.0573 17.1823H21.3906C21.2028 17.1823 21.0226 17.1077 20.8898 16.9748C20.7569 16.842 20.6823 16.6618 20.6823 16.474V15.0573Z" fill="black"/>
</svg>
