<svg width="23" height="26" viewBox="0 0 23 26" fill="none" xmlns="http://www.w3.org/2000/svg">
<path fill-rule="evenodd" clip-rule="evenodd" d="M3.30742 0.224609C2.45873 0.224609 1.6448 0.561751 1.04468 1.16187C0.444564 1.76198 0.107422 2.57592 0.107422 3.42461V25.8246L5.70742 22.6246L11.3074 25.8246L16.9074 22.6246L22.5074 25.8246V3.42461C22.5074 2.57592 22.1703 1.76198 21.5702 1.16187C20.97 0.561751 20.1561 0.224609 19.3074 0.224609H3.30742ZM7.30742 5.02461C6.6709 5.02461 6.06045 5.27747 5.61037 5.72755C5.16028 6.17764 4.90742 6.78809 4.90742 7.42461C4.90742 8.06113 5.16028 8.67158 5.61037 9.12167C6.06045 9.57175 6.6709 9.82461 7.30742 9.82461C7.94394 9.82461 8.55439 9.57175 9.00448 9.12167C9.45457 8.67158 9.70742 8.06113 9.70742 7.42461C9.70742 6.78809 9.45457 6.17764 9.00448 5.72755C8.55439 5.27747 7.94394 5.02461 7.30742 5.02461ZM17.2386 5.49341C16.9386 5.19346 16.5317 5.02495 16.1074 5.02495C15.6832 5.02495 15.2763 5.19346 14.9762 5.49341L5.37622 15.0934C5.22341 15.241 5.10151 15.4176 5.01766 15.6128C4.93381 15.808 4.88967 16.0179 4.88782 16.2304C4.88598 16.4428 4.92646 16.6535 5.00691 16.8501C5.08736 17.0468 5.20616 17.2254 5.35639 17.3756C5.50662 17.5259 5.68526 17.6447 5.8819 17.7251C6.07853 17.8056 6.28922 17.8461 6.50166 17.8442C6.71411 17.8424 6.92406 17.7982 7.11927 17.7144C7.31448 17.6305 7.49103 17.5086 7.63862 17.3558L17.2386 7.75581C17.5386 7.45576 17.7071 7.04887 17.7071 6.62461C17.7071 6.20035 17.5386 5.79345 17.2386 5.49341ZM15.3074 13.0246C14.6709 13.0246 14.0605 13.2775 13.6104 13.7276C13.1603 14.1776 12.9074 14.7881 12.9074 15.4246C12.9074 16.0611 13.1603 16.6716 13.6104 17.1217C14.0605 17.5718 14.6709 17.8246 15.3074 17.8246C15.9439 17.8246 16.5544 17.5718 17.0045 17.1217C17.4546 16.6716 17.7074 16.0611 17.7074 15.4246C17.7074 14.7881 17.4546 14.1776 17.0045 13.7276C16.5544 13.2775 15.9439 13.0246 15.3074 13.0246Z" fill="black"/>
</svg>
